<svg xmlns="http://www.w3.org/2000/svg" viewBox="8 8 112 112" role="img" aria-labelledby="title desc">
  <title id="title">ChainPoker blue-gold seal</title>
  <desc id="desc">Circular ChainPoker seal in glossy blue and gold with an ace-of-spades center.</desc>
  <defs>
    <linearGradient id="blue" x1="28" y1="16" x2="94" y2="112" gradientUnits="userSpaceOnUse">
      <stop stop-color="#58ceff" />
      <stop offset=".48" stop-color="#1687ff" />
      <stop offset="1" stop-color="#071a58" />
    </linearGradient>
    <linearGradient id="gold" x1="38" y1="26" x2="88" y2="102" gradientUnits="userSpaceOnUse">
      <stop stop-color="#fff4c4" />
      <stop offset=".46" stop-color="#ffc23f" />
      <stop offset="1" stop-color="#f18418" />
    </linearGradient>
  </defs>
  <circle cx="64" cy="64" r="56" fill="#eaf6ff" />
  <circle cx="64" cy="64" r="53" fill="url(#blue)" />
  <circle cx="64" cy="64" r="48" fill="none" stroke="#fff7d4" stroke-width="4" />
  <circle cx="64" cy="64" r="35" fill="none" stroke="#ffe5a3" stroke-width="1.8" opacity=".9" />
  <circle cx="46" cy="31" r="16" fill="#fff" opacity=".22" />
  <text x="64" y="31" fill="#fff7d4" font-family="Arial, sans-serif" font-size="8" font-weight="900" text-anchor="middle" letter-spacing="1.6">CHAINPOKER</text>
  <text x="64" y="102" fill="#fff7d4" font-family="Arial, sans-serif" font-size="6.8" font-weight="900" text-anchor="middle" letter-spacing="1.6">POKER CARDS</text>
  <circle cx="107" cy="64" r="2.6" fill="#ffe5a3" />
  <circle cx="21" cy="64" r="2.6" fill="#ffe5a3" />
  <path d="M64 38C56 47.5 44.8 56.4 41.2 68.1C38.1 78.1 45.1 86.6 54.4 86.6C58.1 86.6 61.5 85.1 64 81.9C66.5 85.1 69.9 86.6 73.6 86.6C82.9 86.6 89.9 78.1 86.8 68.1C83.2 56.4 72 47.5 64 38Z" fill="url(#gold)" />
  <path d="M59.5 83.8H68.5L71.2 94H56.8L59.5 83.8Z" fill="url(#gold)" />
</svg>
